<svg width="243" height="72" viewBox="0 0 243 72" fill="none" xmlns="http://www.w3.org/2000/svg">
<path fill-rule="evenodd" clip-rule="evenodd" d="M0.240707 61.0038H30.7427V40.6238C30.7427 36.8888 26.2267 35.0178 23.5857 37.6588L0.240707 61.0038Z" fill="#FF1F8A"/>
<path fill-rule="evenodd" clip-rule="evenodd" d="M30.7426 20.3803V0.000305176H0.240601L23.5856 23.3453C26.2266 25.9863 30.7426 24.1153 30.7426 20.3803" fill="#FF1F8A"/>
<path fill-rule="evenodd" clip-rule="evenodd" d="M42.4066 0H30.8326L64.9876 30.502C64.9876 30.502 66.3326 0 42.4066 0" fill="#FF1F8A"/>
<path fill-rule="evenodd" clip-rule="evenodd" d="M40.5285 61.0038C66.1645 61.0038 64.9875 30.5018 64.9875 30.5018L30.8325 61.0038H40.5285Z" fill="#FF1F8A"/>
<path fill-rule="evenodd" clip-rule="evenodd" d="M192.265 54.47H202.429V6.25299H192.265V54.47Z" fill="#0A0B09"/>
<path fill-rule="evenodd" clip-rule="evenodd" d="M235.25 55.5853L242.015 19.7953H231.603C231.603 19.7953 228.093 38.7283 227.721 41.0833C227.349 43.4383 225.986 45.2973 223.755 45.2973C221.523 45.2973 220.376 43.1903 220.376 40.0913V19.7953H210.676V54.4703H221.104C223.779 54.4703 224.624 56.1853 224.624 57.9433C224.624 66.3533 207.816 60.9443 207.816 60.9443V70.7403C207.816 70.7403 210.789 71.8003 218.61 71.8003C233.678 71.8003 235.25 55.5853 235.25 55.5853" fill="#0A0B09"/>
<path fill-rule="evenodd" clip-rule="evenodd" d="M136.121 18.1526C126.948 18.1526 120.751 23.0676 120.751 36.2896C120.751 49.5116 125.833 55.5856 136.121 55.5856C146.409 55.5856 151.119 47.4856 151.119 36.2896C151.119 25.0936 146.285 18.1526 136.121 18.1526M135.935 45.2976C131.411 45.2976 130.278 40.5056 130.278 36.5396C130.278 32.5726 131.4 27.6966 135.935 27.6966C141.079 27.6966 141.688 32.0776 141.688 36.5396C141.688 41.0016 140.459 45.2976 135.935 45.2976" fill="#0A0B09"/>
<path fill-rule="evenodd" clip-rule="evenodd" d="M170.63 18.1526C161.457 18.1526 155.26 23.0676 155.26 36.2896C155.26 49.5116 160.342 55.5856 170.63 55.5856C180.917 55.5856 185.628 47.4856 185.628 36.2896C185.628 25.0936 180.794 18.1526 170.63 18.1526M170.444 45.2976C165.92 45.2976 164.787 40.5056 164.787 36.5396C164.787 32.5726 165.909 27.6966 170.444 27.6966C175.588 27.6966 176.197 32.0776 176.197 36.5396C176.197 41.0016 174.968 45.2976 170.444 45.2976" fill="#0A0B09"/>
<path fill-rule="evenodd" clip-rule="evenodd" d="M98.2251 6.25342H80.2521V54.4694H96.8611C110.372 54.4694 116.198 43.3094 116.198 30.3614C116.198 14.8104 109.257 6.25342 98.2251 6.25342M95.4981 45.2974C90.6641 45.2974 90.0451 40.9594 90.0451 38.6044V22.6144C90.0451 19.2684 91.2881 15.7064 95.7251 15.7064C100.977 15.7064 106.067 18.9534 106.067 30.3614C106.067 42.6944 100.824 45.2974 95.4981 45.2974" fill="#0A0B09"/>
</svg>